<svg width="72" height="60" fill="none" xmlns="http://www.w3.org/2000/svg"><path d="M14.093 25.637h9.594v21.435h-9.594V25.636zM30.918 25.637h9.593v21.435h-9.594V25.636zM47.742 25.637h9.593v21.435h-9.593V25.636z" fill="#FA8334"/><path d="M7.469 21.65h1.614v3.986c0 .748.625 1.355 1.395 1.355H60.95c.77 0 1.396-.607 1.396-1.355V21.65h1.614c.77 0 1.395-.606 1.395-1.354V13.68c0-.748-.625-1.354-1.396-1.354h-1.608L36.321.135c-.383-.18-.83-.18-1.213 0l-26.03 12.19h-1.61c-.77 0-1.394.607-1.394 1.355v6.616c0 .748.625 1.354 1.395 1.354zm4.404 0h14.034v2.632H11.873V21.65zm16.824 0h14.034v2.632H28.697V21.65zm30.859 2.632H45.522v-2.631h14.034v2.631zm3.009-5.34H8.864v-3.908h53.7v3.908zM35.715 2.858l20.215 9.468H15.498l20.216-9.468zM70.034 57.292h-2.108v-4.88c0-.748-.624-1.354-1.395-1.354h-4.185v-3.986c0-.748-.625-1.354-1.395-1.354H10.478c-.77 0-1.395.606-1.395 1.354v3.986H4.897c-.77 0-1.395.606-1.395 1.354v4.88H1.395c-.77 0-1.395.606-1.395 1.354C0 59.394.625 60 1.395 60h68.639c.77 0 1.395-.606 1.395-1.354 0-.748-.625-1.354-1.395-1.354zm-10.479-6.234H45.523v-2.632h14.034v2.632zm-16.824 0H28.697v-2.632h14.034v2.632zm-30.858-2.632h14.034v2.632H11.873v-2.632zm-5.58 8.866v-3.526h58.843v3.526H6.293z" fill="#fff"/></svg>