<svg width="60" height="60" fill="none" xmlns="http://www.w3.org/2000/svg"><path d="M30 5.058c-.647 0-1.172.525-1.172 1.172v2.22a1.172 1.172 0 002.344 0V6.23c0-.647-.525-1.172-1.172-1.172zM30 50.896c-.647 0-1.172.524-1.172 1.172v2.22a1.172 1.172 0 102.344 0v-2.22c0-.648-.525-1.172-1.172-1.172zM54.029 29.087h-2.22a1.172 1.172 0 100 2.344h2.22a1.172 1.172 0 100-2.344zM8.191 29.087h-2.22a1.172 1.172 0 100 2.344h2.22a1.172 1.172 0 100-2.344zM46.162 12.44l-1.57 1.569a1.172 1.172 0 001.658 1.657l1.57-1.57a1.172 1.172 0 00-1.658-1.657zM13.75 44.851l-1.57 1.57a1.172 1.172 0 001.658 1.657l1.57-1.57a1.172 1.172 0 00-1.658-1.657zM46.25 44.851a1.172 1.172 0 00-1.657 1.658l1.57 1.57a1.168 1.168 0 001.657 0c.457-.458.457-1.2 0-1.658l-1.57-1.57zM13.838 12.44a1.172 1.172 0 00-1.658 1.657l1.57 1.57a1.168 1.168 0 001.657 0c.458-.458.458-1.2 0-1.658l-1.57-1.57z" fill="#fff"/><path d="M51.213 8.787C45.547 3.12 38.013 0 30 0 21.987 0 14.453 3.12 8.787 8.787 3.12 14.453 0 21.987 0 30c0 8.013 3.12 15.547 8.787 21.213C14.453 56.88 21.987 60 30 60c8.013 0 15.547-3.12 21.213-8.787C56.88 45.547 60 38.013 60 30c0-8.013-3.12-15.547-8.787-21.213zM30 57.657C14.75 57.656 2.344 45.25 2.344 30S14.75 2.344 30 2.344C45.25 2.344 57.656 14.75 57.656 30c0 15.25-12.406 27.656-27.656 27.656z" fill="#fff"/><path d="M30 47.261c9.533 0 17.261-7.728 17.261-17.261S39.533 12.739 30 12.739 12.739 20.467 12.739 30 20.467 47.261 30 47.261z" fill="#FA8334"/><path d="M31.986 29.108c-.375-.132-.724-.257-1.047-.374v-5.965c.976.159 1.693.597 2.056 1.115a1.172 1.172 0 101.919-1.347c-.744-1.06-2.141-1.93-3.975-2.132v-.707a1.172 1.172 0 10-2.344 0v.806a9.68 9.68 0 00-1.04.253c-1.839.554-3.227 2.345-3.376 4.356-.146 1.973.91 3.69 2.827 4.595.332.156.882.382 1.59.654v6.974c-1.101-.236-2.167-.73-2.82-1.54a1.172 1.172 0 00-1.826 1.47c1.173 1.456 2.954 2.187 4.645 2.457v.579a1.172 1.172 0 002.344 0v-.486l.025-.002c3.533-.308 5.058-2.505 5.306-4.458.338-2.667-1.423-5.236-4.284-6.248zm-3.98-1.52c-1.396-.659-1.533-1.725-1.49-2.302.078-1.048.799-2.01 1.715-2.285.123-.037.244-.07.364-.1v4.94c-.266-.109-.463-.194-.59-.254zm5.938 7.472c-.166 1.31-1.284 2.2-3.005 2.401v-6.237l.266.094c2.114.747 2.902 2.464 2.74 3.742z" fill="#fff"/></svg>