<svg width="105" height="84" fill="none" xmlns="http://www.w3.org/2000/svg"><path d="M2.05 31.884h91.108v12.85H2.05v-12.85z" fill="#FA8334"/><path d="M97.923 0H16.869C12.967 0 9.79 3.405 9.79 7.59v8.683H7.077C3.175 16.273 0 19.678 0 23.863V76.41C0 80.595 3.175 84 7.077 84h81.054c3.903 0 7.078-3.405 7.078-7.59v-8.683h2.714c3.902 0 7.077-3.405 7.077-7.59V7.59C105 3.405 101.825 0 97.923 0zm-6.816 76.41c0 1.76-1.335 3.191-2.976 3.191H7.077c-1.64 0-2.975-1.431-2.975-3.191V23.863c0-1.76 1.335-3.191 2.975-3.191h81.054c1.641 0 2.976 1.431 2.976 3.191V76.41zm9.791-16.273c0 1.76-1.335 3.191-2.975 3.191h-2.715V23.863c0-4.185-3.174-7.59-7.077-7.59H13.893V7.59c0-1.76 1.335-3.191 2.976-3.191h81.054c1.64 0 2.975 1.431 2.975 3.191v52.547z" fill="#fff"/><path d="M42.714 59.213H32.582c-1.132 0-2.05.984-2.05 2.2v9.107c0 1.215.918 2.2 2.05 2.2h10.132c1.132 0 2.05-.985 2.05-2.2v-9.108c0-1.215-.917-2.2-2.05-2.2zm-2.05 9.108h-6.031v-4.71h6.03v4.71zM62.627 59.213H52.495c-1.133 0-2.05.984-2.05 2.2v9.107c0 1.215.917 2.2 2.05 2.2h10.132c1.132 0 2.05-.985 2.05-2.2v-9.108c0-1.215-.918-2.2-2.05-2.2zm-2.051 9.108h-6.03v-4.71h6.03v4.71zM82.54 59.213H72.407c-1.133 0-2.051.984-2.051 2.2v9.107c0 1.215.918 2.2 2.05 2.2H82.54c1.133 0 2.051-.985 2.051-2.2v-9.108c0-1.215-.918-2.2-2.05-2.2zm-2.052 9.108h-6.03v-4.71h6.03v4.71zM22.801 59.213H12.67c-1.132 0-2.05.984-2.05 2.2v9.107c0 1.215.918 2.2 2.05 2.2h10.132c1.133 0 2.05-.985 2.05-2.2v-9.108c.001-1.215-.917-2.2-2.05-2.2zm-2.05 9.108h-6.03v-4.71h6.03v4.71z" fill="#fff"/></svg>