<svg width="17" height="28" fill="none" xmlns="http://www.w3.org/2000/svg"><path d="M29.65 22.416c4.955.786 8.752 2.595 11.391 5.427C43.681 30.622 45 34.083 45 38.225c0 3.198-.862 6.16-2.585 8.887-1.724 2.674-4.363 4.824-7.918 6.45-3.5 1.625-7.81 2.438-12.926 2.438-3.986 0-7.918-.498-11.795-1.494C5.952 53.456 2.693 51.989 0 50.1l5.09-9.753c2.154 1.573 4.632 2.806 7.432 3.697a30.788 30.788 0 008.726 1.258c3.285 0 5.87-.603 7.756-1.809 1.885-1.258 2.827-3.015 2.827-5.27 0-4.509-3.528-6.763-10.583-6.763h-5.979v-8.416l11.634-12.82H2.828V0h39.587v8.258L29.65 22.416z" fill="#fff"/></svg>