<svg width="44" height="56" fill="none" xmlns="http://www.w3.org/2000/svg"><path d="M44 45.618V56H2.51v-8.258l21.176-20.057c2.249-2.15 3.765-3.985 4.55-5.505.784-1.573 1.176-3.12 1.176-4.64 0-2.203-.758-3.88-2.275-5.034-1.464-1.206-3.634-1.81-6.51-1.81-2.405 0-4.575.473-6.51 1.416-1.934.892-3.555 2.255-4.862 4.09L0 10.225c2.144-3.199 5.098-5.69 8.863-7.472C12.627.918 16.94 0 21.803 0c4.08 0 7.635.682 10.668 2.045 3.085 1.31 5.464 3.198 7.137 5.663 1.725 2.412 2.588 5.27 2.588 8.573 0 2.989-.627 5.794-1.882 8.416-1.255 2.621-3.687 5.61-7.294 8.966L20.392 45.618H44z" fill="#fff"/></svg>