<svg aria-hidden="true" style="position: absolute; width: 0; height: 0; overflow: hidden;" version="1.1" xmlns="http://www.w3.org/2000/svg" xmlns:xlink="http://www.w3.org/1999/xlink">
<defs>
<symbol id="icon-benefit-one" viewBox="0 0 38 32">
<path fill="#fa8334" style="fill: var(--color1, #fa8334)" d="M7.516 13.673h5.117v11.432h-5.117v-11.433zM16.49 13.673h5.116v11.432h-5.117v-11.433zM25.462 13.673h5.116v11.432h-5.116v-11.433z"></path>
<path fill="#fff" style="fill: var(--color2, #fff)" d="M3.983 11.547h0.861v2.126c0 0.399 0.333 0.723 0.744 0.723h26.918c0.411 0 0.745-0.324 0.745-0.723v-2.126h0.861c0.411 0 0.744-0.323 0.744-0.722v-3.529c0-0.399-0.333-0.722-0.745-0.722h-0.858l-13.883-6.502c-0.204-0.096-0.443-0.096-0.647 0l-13.883 6.501h-0.859c-0.411 0-0.743 0.324-0.743 0.723v3.529c0 0.399 0.333 0.722 0.744 0.722zM6.332 11.547h7.485v1.404h-7.485v-1.404zM15.305 11.547h7.485v1.404h-7.485v-1.404zM31.763 12.95h-7.485v-1.403h7.485v1.403zM33.368 10.102h-28.641v-2.084h28.64v2.084zM19.048 1.524l10.781 5.050h-21.564l10.782-5.050zM37.351 30.556h-1.124v-2.603c0-0.399-0.333-0.722-0.744-0.722h-2.232v-2.126c0-0.399-0.333-0.722-0.744-0.722h-26.919c-0.411 0-0.744 0.323-0.744 0.722v2.126h-2.233c-0.411 0-0.744 0.323-0.744 0.722v2.603h-1.124c-0.411 0-0.744 0.323-0.744 0.722s0.333 0.722 0.744 0.722h36.607c0.411 0 0.744-0.323 0.744-0.722s-0.333-0.722-0.744-0.722zM31.763 27.231h-7.484v-1.404h7.485v1.404zM22.79 27.231h-7.485v-1.404h7.485v1.404zM6.332 25.827h7.485v1.404h-7.485v-1.404zM3.356 30.556v-1.881h31.383v1.881h-31.383z"></path>
</symbol>
<symbol id="icon-benefit-three" viewBox="0 0 32 32">
<path fill="#fff" style="fill: var(--color2, #fff)" d="M16 2.698c-0.345 0-0.625 0.28-0.625 0.625v1.184c0 0.345 0.28 0.625 0.625 0.625s0.625-0.28 0.625-0.625v0-1.184c0-0.345-0.28-0.625-0.625-0.625zM16 27.145c-0.345 0-0.625 0.279-0.625 0.625v1.184c0 0.345 0.28 0.625 0.625 0.625s0.625-0.28 0.625-0.625v-1.184c0-0.346-0.28-0.625-0.625-0.625zM28.815 15.513h-1.184c-0.345 0-0.625 0.28-0.625 0.625s0.28 0.625 0.625 0.625h1.184c0.345 0 0.625-0.28 0.625-0.625s-0.28-0.625-0.625-0.625v0zM4.369 15.513h-1.184c-0.345 0-0.625 0.28-0.625 0.625s0.28 0.625 0.625 0.625h1.184c0.345 0 0.625-0.28 0.625-0.625s-0.28-0.625-0.625-0.625v0zM24.62 6.635l-0.837 0.837c-0.113 0.113-0.183 0.269-0.183 0.442 0 0.345 0.28 0.625 0.625 0.625 0.173 0 0.329-0.070 0.442-0.183l0.837-0.837c0.113-0.113 0.183-0.269 0.183-0.442 0-0.345-0.28-0.625-0.625-0.625-0.173 0-0.329 0.070-0.442 0.183v0zM7.333 23.921l-0.837 0.837c-0.113 0.113-0.183 0.269-0.183 0.442 0 0.345 0.28 0.625 0.625 0.625 0.173 0 0.329-0.070 0.442-0.183l0.837-0.837c0.113-0.113 0.183-0.269 0.183-0.442 0-0.345-0.28-0.625-0.625-0.625-0.173 0-0.329 0.070-0.442 0.183v0zM24.667 23.921c-0.113-0.113-0.269-0.183-0.442-0.183-0.345 0-0.625 0.28-0.625 0.625 0 0.173 0.070 0.329 0.183 0.442l0.837 0.837c0.113 0.114 0.269 0.184 0.442 0.184s0.329-0.070 0.442-0.184l0-0c0.244-0.244 0.244-0.64 0-0.884l-0.837-0.837zM7.38 6.635c-0.113-0.113-0.269-0.183-0.442-0.183-0.345 0-0.625 0.28-0.625 0.625 0 0.173 0.070 0.329 0.183 0.442l0.837 0.837c0.113 0.114 0.269 0.184 0.442 0.184s0.329-0.070 0.442-0.184l0-0c0.244-0.244 0.244-0.64 0-0.884l-0.837-0.837z"></path>
<path fill="#fff" style="fill: var(--color2, #fff)" d="M27.314 4.686c-3.022-3.022-7.040-4.686-11.314-4.686s-8.292 1.664-11.314 4.686c-3.022 3.022-4.686 7.040-4.686 11.314s1.664 8.292 4.686 11.314c3.022 3.022 7.040 4.686 11.314 4.686s8.292-1.664 11.314-4.686c3.022-3.022 4.686-7.040 4.686-11.314s-1.664-8.292-4.686-11.314zM16 30.75c-8.133-0.001-14.75-6.617-14.75-14.75s6.617-14.75 14.75-14.75c8.133 0 14.75 6.617 14.75 14.75s-6.617 14.75-14.75 14.75z"></path>
<path fill="#fa8334" style="fill: var(--color1, #fa8334)" d="M16 25.206c5.084 0 9.206-4.122 9.206-9.206s-4.122-9.206-9.206-9.206-9.206 4.122-9.206 9.206 4.122 9.206 9.206 9.206z"></path>
<path fill="#fff" style="fill: var(--color2, #fff)" d="M17.059 15.524c-0.2-0.070-0.386-0.137-0.558-0.199v-3.181c0.521 0.085 0.903 0.318 1.097 0.595 0.115 0.162 0.301 0.266 0.512 0.266 0.345 0 0.625-0.28 0.625-0.625 0-0.135-0.043-0.259-0.115-0.361l0.001 0.002c-0.397-0.565-1.142-1.029-2.12-1.137v-0.377c0-0.345-0.28-0.625-0.625-0.625s-0.625 0.28-0.625 0.625v0.43c-0.223 0.041-0.409 0.088-0.591 0.145l0.037-0.010c-0.981 0.295-1.721 1.251-1.801 2.323-0.078 1.052 0.485 1.968 1.508 2.451 0.177 0.083 0.47 0.204 0.848 0.349v3.719c-0.587-0.126-1.156-0.389-1.504-0.821-0.116-0.143-0.291-0.233-0.487-0.233-0.345 0-0.625 0.28-0.625 0.625 0 0.149 0.052 0.286 0.139 0.393l-0.001-0.001c0.626 0.777 1.575 1.166 2.477 1.31v0.309c0 0.345 0.28 0.625 0.625 0.625s0.625-0.28 0.625-0.625v0-0.259l0.013-0.001c1.884-0.164 2.698-1.336 2.83-2.378 0.18-1.422-0.759-2.793-2.285-3.332zM14.937 14.714c-0.745-0.351-0.818-0.92-0.795-1.228 0.042-0.559 0.426-1.072 0.915-1.219 0.066-0.020 0.13-0.037 0.194-0.053v2.635c-0.142-0.058-0.247-0.103-0.315-0.135zM18.103 18.699c-0.089 0.699-0.685 1.173-1.603 1.281v-3.326l0.142 0.050c1.127 0.398 1.548 1.314 1.461 1.996z"></path>
</symbol>
<symbol id="icon-benefit-two" viewBox="0 0 40 32">
<path fill="#fa8334" style="fill: var(--color1, #fa8334)" d="M0.781 12.146h34.708v4.895h-34.708v-4.895z"></path>
<path fill="#fff" style="fill: var(--color2, #fff)" d="M37.304 0h-30.878c-1.486 0-2.697 1.297-2.697 2.891v3.308h-1.034c-1.486 0-2.696 1.297-2.696 2.891v20.018c0 1.594 1.21 2.891 2.696 2.891h30.878c1.487 0 2.696-1.297 2.696-2.891v-3.308h1.034c1.486 0 2.696-1.297 2.696-2.891v-20.018c0-1.594-1.21-2.891-2.696-2.891zM34.707 29.109c0 0.67-0.509 1.216-1.134 1.216h-30.878c-0.625 0-1.133-0.545-1.133-1.216v-20.018c0-0.67 0.509-1.216 1.133-1.216h30.878c0.625 0 1.134 0.545 1.134 1.216v20.018zM38.437 22.909c0 0.67-0.509 1.216-1.133 1.216h-1.034v-15.034c0-1.594-1.209-2.891-2.696-2.891h-28.281v-3.308c0-0.67 0.509-1.216 1.134-1.216h30.878c0.625 0 1.133 0.545 1.133 1.216v20.018z"></path>
<path fill="#fff" style="fill: var(--color2, #fff)" d="M16.272 22.557h-3.86c-0.431 0-0.781 0.375-0.781 0.838v3.469c0 0.463 0.35 0.838 0.781 0.838h3.86c0.431 0 0.781-0.375 0.781-0.838v-3.47c0-0.463-0.349-0.838-0.781-0.838zM15.491 26.027h-2.298v-1.794h2.297v1.794zM23.858 22.557h-3.86c-0.432 0-0.781 0.375-0.781 0.838v3.469c0 0.463 0.349 0.838 0.781 0.838h3.86c0.431 0 0.781-0.375 0.781-0.838v-3.47c0-0.463-0.35-0.838-0.781-0.838zM23.077 26.027h-2.297v-1.794h2.297v1.794zM31.444 22.557h-3.86c-0.432 0-0.781 0.375-0.781 0.838v3.469c0 0.463 0.35 0.838 0.781 0.838h3.861c0.432 0 0.781-0.375 0.781-0.838v-3.47c0-0.463-0.35-0.838-0.781-0.838zM30.662 26.027h-2.297v-1.794h2.297v1.794zM8.686 22.557h-3.859c-0.431 0-0.781 0.375-0.781 0.838v3.469c0 0.463 0.35 0.838 0.781 0.838h3.86c0.432 0 0.781-0.375 0.781-0.838v-3.47c0-0.463-0.349-0.838-0.781-0.838zM7.905 26.027h-2.297v-1.794h2.297v1.794z"></path>
</symbol>
<symbol id="icon-earn-one" viewBox="0 0 14 32">
<path fill="#fff" style="fill: var(--color2, #fff)" d="M13.714 0v32h-7.357v-26.057h-6.358v-5.943h13.714z"></path>
</symbol>
<symbol id="icon-earn-three" viewBox="0 0 26 32">
<path fill="#fff" style="fill: var(--color2, #fff)" d="M16.943 12.809c2.831 0.449 5.001 1.483 6.509 3.101 1.509 1.588 2.262 3.566 2.262 5.933 0 1.827-0.493 3.52-1.477 5.078-0.985 1.528-2.493 2.757-4.525 3.686-2 0.929-4.463 1.393-7.386 1.393-2.278 0-4.525-0.285-6.74-0.854-2.185-0.6-4.047-1.438-5.586-2.518l2.909-5.573c1.231 0.899 2.647 1.603 4.247 2.113 1.49 0.456 3.203 0.719 4.978 0.719 0.003 0 0.006 0 0.009 0h-0.001c1.877 0 3.354-0.345 4.432-1.034 1.077-0.719 1.615-1.723 1.615-3.011 0-2.577-2.016-3.865-6.047-3.865h-3.417v-4.809l6.648-7.326h-13.757v-5.842h22.621v4.719l-7.294 8.090z"></path>
</symbol>
<symbol id="icon-earn-two" viewBox="0 0 25 32">
<path fill="#fff" style="fill: var(--color2, #fff)" d="M25.143 26.067v5.933h-23.709v-4.719l12.101-11.461c1.285-1.229 2.151-2.277 2.6-3.146 0.448-0.899 0.672-1.783 0.672-2.651 0-1.259-0.433-2.217-1.3-2.877-0.837-0.689-2.077-1.034-3.72-1.034-1.374 0-2.614 0.27-3.72 0.809-1.105 0.51-2.031 1.289-2.778 2.337l-5.289-3.415c1.225-1.828 2.913-3.251 5.065-4.27 2.151-1.049 4.615-1.573 7.394-1.573 2.331 0 4.363 0.39 6.096 1.169 1.763 0.749 3.122 1.827 4.078 3.236 0.986 1.378 1.479 3.011 1.479 4.899 0 1.708-0.358 3.311-1.075 4.809s-2.107 3.206-4.168 5.123l-7.216 6.831h13.49z"></path>
</symbol>
</defs>
</svg>
